<svg version="1.2" baseProfile="tiny-ps" xmlns="http://www.w3.org/2000/svg" viewBox="0 0 90 34" width="90" height="34">
	<title>CONTENT</title>
	<style>
		tspan { white-space:pre }
		.shp0 { fill: #3655c6 } 
		.shp1 { fill: #42c3af } 
		.shp2 { fill: #8440f4 } 
		.shp3 { fill: #f2b115 } 
	</style>
	<g id="CONTENT">
		<g id="1">
			<g id="pop-up">
				<g id="stats">
					<path id="Rectangle 3" class="shp0" d="M3 19.34C4.66 19.34 6 20.69 6 22.34L6 30.34C6 32 4.66 33.34 3 33.34C1.34 33.34 0 32 0 30.34L0 22.34C0 20.69 1.34 19.34 3 19.34Z" />
					<path id="Rectangle 3 copy" class="shp1" d="M15 8.34C16.66 8.34 18 9.69 18 11.34L18 30.34C18 32 16.66 33.34 15 33.34C13.34 33.34 12 32 12 30.34L12 11.34C12 9.69 13.34 8.34 15 8.34Z" />
					<path id="Rectangle 3 copy 2" class="shp2" d="M27 13.34C28.66 13.34 30 14.69 30 16.34L30 30.34C30 32 28.66 33.34 27 33.34C25.34 33.34 24 32 24 30.34L24 16.34C24 14.69 25.34 13.34 27 13.34Z" />
					<path id="Rectangle 3 copy 3" class="shp3" d="M39 0.34C40.66 0.34 42 1.69 42 3.34L42 30.34C42 32 40.66 33.34 39 33.34C37.34 33.34 36 32 36 30.34L36 3.34C36 1.69 37.34 0.34 39 0.34Z" />
					<path id="Rectangle 3 copy 4" class="shp1" d="M51 15.34C52.66 15.34 54 16.69 54 18.34L54 30.34C54 32 52.66 33.34 51 33.34C49.34 33.34 48 32 48 30.34L48 18.34C48 16.69 49.34 15.34 51 15.34Z" />
					<path id="Rectangle 3 copy 5" class="shp0" d="M63 8.34C64.66 8.34 66 9.69 66 11.34L66 30.34C66 32 64.66 33.34 63 33.34C61.34 33.34 60 32 60 30.34L60 11.34C60 9.69 61.34 8.34 63 8.34Z" />
					<path id="Rectangle 3 copy 6" class="shp3" d="M75 4.34C76.66 4.34 78 5.69 78 7.34L78 30.34C78 32 76.66 33.34 75 33.34C73.34 33.34 72 32 72 30.34L72 7.34C72 5.69 73.34 4.34 75 4.34Z" />
					<path id="Rectangle 3 copy 7" class="shp1" d="M87 20.34C88.66 20.34 90 21.69 90 23.34L90 30.34C90 32 88.66 33.34 87 33.34C85.34 33.34 84 32 84 30.34L84 23.34C84 21.69 85.34 20.34 87 20.34Z" />
				</g>
			</g>
		</g>
	</g>
</svg>