<svg version="1.2" baseProfile="tiny-ps" xmlns="http://www.w3.org/2000/svg" viewBox="0 0 60 33" width="60" height="33">
	<title>CONTENT</title>
	<style>
		tspan { white-space:pre }
		.shp0 { fill: #3655c6 } 
		.shp1 { fill: #42c3af } 
		.shp2 { fill: #8440f4 } 
		.shp3 { fill: #f2b115 } 
	</style>
	<g id="CONTENT">
		<g id="1">
			<g id="pop-up 2">
				<g id="stats">
					<path id="Rectangle 3" class="shp0" d="M2.09 23.47C3.15 23.47 4 24.32 4 25.37L4 30.5C4 31.55 3.15 32.41 2.09 32.41C1.04 32.41 0.19 31.55 0.19 30.5L0.19 25.37C0.19 24.32 1.04 23.47 2.09 23.47Z" />
					<path id="Rectangle 3 copy" class="shp1" d="M10.43 17.84L10.44 17.84C11.54 17.84 12.44 18.74 12.44 19.84L12.44 30.22C12.44 31.33 11.54 32.22 10.44 32.22L10.43 32.22C9.33 32.22 8.44 31.33 8.44 30.22L8.44 19.84C8.44 18.74 9.33 17.84 10.43 17.84Z" />
					<path id="Rectangle 3 copy 2" class="shp2" d="M18.4 16.44L18.41 16.44C19.51 16.44 20.41 17.33 20.41 18.43L20.41 30.41C20.41 31.51 19.51 32.41 18.41 32.41L18.4 32.41C17.3 32.41 16.41 31.51 16.41 30.41L16.41 18.43C16.41 17.33 17.3 16.44 18.4 16.44Z" />
					<path id="Rectangle 3 copy 3" class="shp3" d="M26.4 9.25L26.41 9.25C27.51 9.25 28.41 10.14 28.41 11.25L28.41 30.41C28.41 31.51 27.51 32.41 26.41 32.41L26.4 32.41C25.3 32.41 24.41 31.51 24.41 30.41L24.41 11.25C24.41 10.14 25.3 9.25 26.4 9.25Z" />
					<path id="Rectangle 3 copy 4" class="shp1" d="M33.58 9.84C34.67 9.84 35.56 10.73 35.56 11.83L35.56 29.42C35.56 30.52 34.67 31.41 33.58 31.41C32.48 31.41 31.59 30.52 31.59 29.42L31.59 11.83C31.59 10.73 32.48 9.84 33.58 9.84Z" />
					<path id="Rectangle 3 copy 5" class="shp0" d="M41.56 6.06L41.57 6.06C42.67 6.06 43.56 6.96 43.56 8.06L43.56 30.41C43.56 31.51 42.67 32.41 41.57 32.41L41.56 32.41C40.46 32.41 39.56 31.51 39.56 30.41L39.56 8.06C39.56 6.96 40.46 6.06 41.56 6.06Z" />
					<path id="Rectangle 3 copy 6" class="shp3" d="M49.75 0.47L49.75 0.47C50.86 0.47 51.75 1.36 51.75 2.46L51.75 30.41C51.75 31.51 50.86 32.41 49.75 32.41L49.75 32.41C48.64 32.41 47.75 31.51 47.75 30.41L47.75 2.46C47.75 1.36 48.64 0.47 49.75 0.47Z" />
					<path id="Rectangle 3 copy 7" class="shp1" d="M57.73 4.47C58.83 4.47 59.72 5.36 59.72 6.45L59.72 30.42C59.72 31.52 58.83 32.41 57.73 32.41C56.64 32.41 55.75 31.52 55.75 30.42L55.75 6.45C55.75 5.36 56.64 4.47 57.73 4.47Z" />
				</g>
			</g>
		</g>
	</g>
</svg>